<svg width="256" height="256" viewBox="0 0 256 256" xmlns="http://www.w3.org/2000/svg">
  <g fill="none">
    <rect width="256" height="256" fill="#092E20" rx="60"/>
    <path d="M186.377 94.198v66.226c0 8.76-1.56 15.684-4.68 20.384s-7.8 8.58-14.04 11.44c-6.24 2.86-14.04 4.55-23.4 4.94v-13.52c6.76-.52 11.96-1.95 15.6-4.29s5.46-5.85 5.46-10.66v-74.88h20.88v.36h.18zM79.158 92.278c8.32 0 15.34 1.3 21.06 3.9s10.14 6.24 13.26 10.92c3.12 4.68 4.68 10.14 4.68 16.38s-1.56 11.7-4.68 16.38c-3.12 4.68-7.54 8.32-13.26 10.92s-12.74 3.9-21.06 3.9c-8.32 0-15.34-1.3-21.06-3.9s-10.14-6.24-13.26-10.92c-3.12-4.68-4.68-10.14-4.68-16.38s1.56-11.7 4.68-16.38c3.12-4.68 7.54-8.32 13.26-10.92s12.74-3.9 21.06-3.9zm0 11.96c-5.2 0-9.36 1.69-12.48 5.07s-4.68 8.06-4.68 14.04s1.56 10.66 4.68 14.04s7.28 5.07 12.48 5.07s9.36-1.69 12.48-5.07s4.68-8.06 4.68-14.04s-1.56-10.66-4.68-14.04s-7.28-5.07-12.48-5.07z" fill="#ffffff"/>
    <path d="M124.638 95.558v66.226c0 8.76-1.56 15.684-4.68 20.384s-7.8 8.58-14.04 11.44c-6.24 2.86-14.04 4.55-23.4 4.94v-13.52c6.76-.52 11.96-1.95 15.6-4.29s5.46-5.85 5.46-10.66v-74.88h20.88v.36h.18z" fill="#ffffff"/>
  </g>
</svg>