<svg width="256" height="256" viewBox="0 0 256 256" xmlns="http://www.w3.org/2000/svg">
  <g fill="none">
    <rect width="256" height="256" fill="#181717" rx="60"/>
    <path d="M128.001 30C72.779 30 28.001 74.77 28.001 129.996c0 44.194 28.692 81.729 68.479 95.015c5.005.924 6.83-2.174 6.83-4.827c0-2.368-.093-10.262-.135-18.618c-27.82 6.049-33.69-11.799-33.69-11.799c-4.553-11.559-11.104-14.632-11.104-14.632c-9.056-6.197.705-6.072.705-6.072c10.017.705 15.291 10.284 15.291 10.284c8.903 15.264 23.365 10.848 29.045 8.297c.9-6.464 3.482-10.848 6.34-13.341c-22.152-2.515-45.426-11.104-45.426-49.421c0-10.918 3.906-19.839 10.284-26.842c-1.035-2.515-4.448-12.641.945-26.357c0 0 8.388-2.684 27.449 10.284c7.955-2.22 16.491-3.329 24.979-3.371c8.489.042 17.024 1.15 24.979 3.371c19.061-12.968 27.449-10.284 27.449-10.284c5.394 13.716 1.981 23.842.946 26.357c6.378 7.003 10.284 15.924 10.284 26.842c0 38.404-23.274 46.906-45.426 49.421c3.578 3.081 6.83 9.056 6.83 18.618c0 13.341-.135 24.979-.135 28.388c0 2.653 1.825 5.751 6.83 4.827C199.309 211.725 228.001 174.19 228.001 129.996C228.001 74.771 183.227 30 128.001 30z" fill="#ffffff"/>
  </g>
</svg>