<svg width="256" height="256" viewBox="0 0 256 256" xmlns="http://www.w3.org/2000/svg">
  <g fill="none">
    <rect width="256" height="256" fill="#00ADD8" rx="60"/>
    <path d="M40.026 112.824c0 2.4.96 4.32 2.88 5.76s4.8 2.16 8.64 2.16h4.32v-15.84h-4.32c-3.84 0-6.72.72-8.64 2.16s-2.88 3.36-2.88 5.76zm83.52-20.16h-9.12v39.84h9.12c6.24 0 10.8-1.68 13.68-5.04s4.32-8.16 4.32-14.4s-1.44-11.04-4.32-14.4s-7.44-5.04-13.68-5.04zm-52.8 28.32h14.4v-8.64h-14.4v-8.16h16.32v-8.64h-25.44v34.08h25.44v-8.64h-16.32v-8.64zm92.16-12.96c1.44 1.2 2.16 2.88 2.16 5.04s-.72 3.84-2.16 5.04s-3.6 1.8-6.48 1.8h-6.72v-13.68h6.72c2.88 0 5.04.6 6.48 1.8zm-37.44-7.2h-18.24v34.08h9.12v-12.96h9.12c4.32 0 7.68-.96 10.08-2.88s3.6-4.8 3.6-8.64s-1.2-6.72-3.6-8.64s-5.76-2.88-10.08-2.88zm-76.32 7.2c1.44 1.2 2.16 2.88 2.16 5.04s-.72 3.84-2.16 5.04s-3.6 1.8-6.48 1.8h-6.72v-13.68h6.72c2.88 0 5.04.6 6.48 1.8z" fill="#ffffff"/>
    <g fill="#ffffff">
      <path d="M88.362 151.92c-9.84 0-17.76-2.88-23.76-8.64s-9-13.68-9-23.76s3-18 9-23.76s13.92-8.64 23.76-8.64h38.88v8.64h-38.88c-6.24 0-11.04 1.92-14.4 5.76s-5.04 8.88-5.04 15.12s1.68 11.28 5.04 15.12s8.16 5.76 14.4 5.76h38.88v8.64h-38.88z"/>
      <circle cx="169.92" cy="128" r="24"/>
    </g>
  </g>
</svg>