<svg width="256" height="256" viewBox="0 0 256 256" xmlns="http://www.w3.org/2000/svg">
  <g fill="none">
    <rect width="256" height="256" fill="#527FFF" rx="60"/>
    <path d="M64 80h128v16H64V80zm0 32h128v16H64v-16zm0 32h128v16H64v-16zm0 32h96v16H64v-16z" fill="#ffffff"/>
    <circle cx="208" cy="88" r="12" fill="#FF9900"/>
    <circle cx="208" cy="120" r="12" fill="#FF9900"/>
    <circle cx="208" cy="152" r="12" fill="#FF9900"/>
    <path d="M40 72c0-8.837 7.163-16 16-16h144c8.837 0 16 7.163 16 16v112c0 8.837-7.163 16-16 16H56c-8.837 0-16-7.163-16-16V72z" stroke="#ffffff" stroke-width="2" fill="none"/>
  </g>
</svg>