<svg width="256" height="256" viewBox="0 0 256 256" xmlns="http://www.w3.org/2000/svg">
  <g fill="none">
    <rect width="256" height="256" fill="#DC382D" rx="60"/>
    <path d="M212.5 149.3c-12.2 5.5-75.3 31.7-87.5 37.2c-12.2-5.5-75.3-31.7-87.5-37.2v-18.4c12.2 5.5 75.3 31.7 87.5 37.2c12.2-5.5 75.3-31.7 87.5-37.2v18.4z" fill="#ffffff"/>
    <path d="M212.5 111.7c-12.2 5.5-75.3 31.7-87.5 37.2c-12.2-5.5-75.3-31.7-87.5-37.2v-18.4c12.2 5.5 75.3 31.7 87.5 37.2c12.2-5.5 75.3-31.7 87.5-37.2v18.4z" fill="#ffffff"/>
    <ellipse cx="125" cy="75.3" rx="87.5" ry="18.4" fill="#ffffff"/>
  </g>
</svg>